<svg width="1204" height="945" viewBox="0 0 1204 945" fill="none" xmlns="http://www.w3.org/2000/svg">
<rect width="1204" height="945" fill="#F6F5FA"/>
<path d="M1200 654.023H4V654.477H1200V654.023Z" fill="#EBEBEB"/>
<path d="M1080.16 683.23H1000.94V683.684H1080.16V683.23Z" fill="#EBEBEB"/>
<path d="M657.542 677.55H626.709V678.004H657.542V677.55Z" fill="#EBEBEB"/>
<path d="M840.411 679.474H775.492V679.927H840.411V679.474Z" fill="#EBEBEB"/>
<path d="M998.546 666.386H864.331V666.84H998.546V666.386Z" fill="#EBEBEB"/>
<path d="M192.944 687.389H129.484V687.842H192.944V687.389Z" fill="#EBEBEB"/>
<path d="M269.249 687.389H214.233V687.842H269.249V687.389Z" fill="#EBEBEB"/>
<path d="M462.81 677.331H317.352V677.785H462.81V677.331Z" fill="#EBEBEB"/>
<path d="M570.904 573.064H109.033C105.414 573.059 101.946 571.965 99.3902 570.022C96.8339 568.079 95.3982 565.445 95.3982 562.699V69.9872C95.4297 67.2571 96.8793 64.6467 99.4322 62.723C101.985 60.7992 105.435 59.7176 109.033 59.7129H570.904C574.526 59.7129 578 60.8049 580.562 62.7487C583.123 64.6926 584.562 67.329 584.562 70.0779V562.699C584.562 565.448 583.123 568.085 580.562 570.028C578 571.972 574.526 573.064 570.904 573.064ZM109.033 60.0759C105.573 60.0807 102.257 61.1271 99.813 62.9853C97.3689 64.8435 95.9962 67.3617 95.9962 69.9872V562.699C95.9962 565.325 97.3689 567.843 99.813 569.701C102.257 571.559 105.573 572.606 109.033 572.61H570.904C574.366 572.606 577.684 571.56 580.132 569.702C582.58 567.845 583.958 565.326 583.964 562.699V69.9872C583.958 67.36 582.58 64.8419 580.132 62.9842C577.684 61.1265 574.366 60.0807 570.904 60.0759H109.033Z" fill="#EBEBEB"/>
<path d="M1088.32 573.064H626.422C622.802 573.059 619.332 571.966 616.772 570.023C614.211 568.08 612.77 565.447 612.764 562.699V69.9872C612.802 67.2554 614.257 64.6451 616.813 62.7218C619.37 60.7986 622.823 59.7175 626.422 59.7129H1088.32C1091.91 59.7223 1095.35 60.8061 1097.9 62.7293C1100.45 64.6525 1101.9 67.2602 1101.93 69.9872V562.699C1101.93 565.442 1100.5 568.073 1097.94 570.016C1095.39 571.958 1091.93 573.055 1088.32 573.064ZM626.422 60.0759C622.961 60.0807 619.642 61.1265 617.194 62.9842C614.746 64.8419 613.368 67.36 613.362 69.9872V562.699C613.368 565.326 614.746 567.845 617.194 569.702C619.642 571.56 622.961 572.606 626.422 572.61H1088.32C1091.78 572.606 1095.1 571.56 1097.55 569.702C1099.99 567.845 1101.37 565.326 1101.38 562.699V69.9872C1101.37 67.36 1099.99 64.8419 1097.55 62.9842C1095.1 61.1265 1091.78 60.0807 1088.32 60.0759H626.422Z" fill="#EBEBEB"/>
<path d="M1121.21 312.34C1128.7 292.676 1127.87 271.72 1118.82 252.437C1128.43 241.994 1134.8 230.036 1137.46 217.458C1140.11 204.88 1138.98 192.01 1134.15 179.811C1129.31 167.612 1120.91 156.402 1109.55 147.021C1098.2 137.639 1084.19 130.33 1068.58 125.642C1064.02 100.675 1051 77.034 1030.79 57.0308C1010.58 37.0275 983.873 21.3466 953.285 11.5214C922.698 1.69608 889.274 -1.93728 856.282 0.976549C823.29 3.89037 791.859 13.2516 765.063 28.145C751.594 17.4114 734.209 9.97414 715.135 6.78615C696.061 3.59816 676.167 4.80468 658.003 10.2511C639.838 15.6975 624.23 25.1358 613.179 37.3565C602.127 49.5772 596.136 64.0237 595.972 78.8448C570.733 82.6868 547.25 91.4551 527.838 104.285C508.426 117.115 493.757 133.563 485.276 152.007C476.795 170.452 474.796 190.255 479.477 209.464C484.157 228.674 495.354 246.626 511.965 261.549C503.84 272.667 499.123 285.032 498.164 297.724C497.205 310.417 500.029 323.11 506.426 334.859C512.823 346.609 522.628 357.113 535.112 365.591C547.596 374.068 562.438 380.3 578.534 383.824C597.325 387.956 617.221 388.244 636.206 384.659C661.935 411.567 700.219 430.015 743.252 436.241C786.286 442.468 830.828 436.004 867.799 418.169C885.811 449.917 900.593 497.549 868.756 544.256C984.409 535.651 1067.91 451.478 1050.88 374.349C1067.8 368.467 1082.84 359.88 1094.98 349.178C1107.11 338.476 1116.06 325.91 1121.21 312.34Z" fill="#EBEBEB"/>
<path d="M899.373 526.829C899.059 526.831 898.747 526.785 898.455 526.695C898.164 526.604 897.899 526.471 897.675 526.303C897.368 526.07 897.15 525.778 897.044 525.458C896.939 525.138 896.95 524.803 897.077 524.488C913.367 481.43 898.512 440.151 883.204 413.104L875.43 399.399L858.829 407.404C825.472 423.502 785.28 429.339 746.448 423.727C707.615 418.114 673.065 401.474 649.84 377.199L643.19 370.246L632.235 372.316C614.336 375.696 595.524 375.034 578.115 370.409C560.705 365.784 545.457 357.398 534.244 346.283C523.031 335.169 516.343 321.809 515.003 307.848C513.663 293.888 517.728 279.934 526.7 267.703L532.273 260.043L524.834 253.363C510.096 240.13 500.157 224.21 495.999 207.174C491.841 190.138 493.606 172.573 501.121 156.212C508.635 139.851 521.64 125.26 538.852 113.876C556.064 102.493 576.889 94.7107 599.273 91.2976L612.573 89.2645L612.716 78.9902C612.839 66.6931 617.799 54.7042 626.962 44.5612C636.124 34.4182 649.07 26.5836 664.14 22.0622C679.21 17.5408 695.716 16.5388 711.541 19.1848C727.366 21.8308 741.789 28.0041 752.959 36.9128L763.101 44.9725L775.061 38.4013C799.515 24.7892 828.206 16.2282 858.328 13.5562C888.45 10.8842 918.97 14.1928 946.901 23.158C974.832 32.1233 999.218 46.4381 1017.67 64.7016C1036.12 82.9651 1048.01 104.552 1052.17 127.348L1053.54 134.609L1062.6 137.332C1075.86 141.315 1087.76 147.524 1097.4 155.494C1107.04 163.464 1114.18 172.988 1118.28 183.351C1122.38 193.714 1123.33 204.647 1121.07 215.329C1118.8 226.011 1113.38 236.166 1105.21 245.031L1100.28 250.386L1103.17 256.557C1112.59 276.692 1111.74 298.774 1100.76 318.452C1089.79 338.129 1069.5 353.972 1043.9 362.858L1032.25 366.924L1034.38 376.509C1041.55 409.419 1028.57 445.361 998.498 475.131C973.672 499.814 939.193 517.903 899.995 526.811C899.79 526.84 899.581 526.846 899.373 526.829ZM876.53 394.952C876.76 394.926 876.994 394.926 877.224 394.952C877.553 395.03 877.856 395.161 878.112 395.337C878.368 395.512 878.571 395.728 878.707 395.968L887.581 411.616C902.842 438.536 917.601 479.306 902.818 522.219C939.364 513.2 971.426 495.953 994.743 472.771C1023.97 443.727 1036.7 408.875 1029.67 376.963L1027.27 366.071C1027.18 365.678 1027.26 365.273 1027.51 364.919C1027.75 364.564 1028.14 364.28 1028.61 364.111L1041.91 359.482C1066.38 350.97 1085.77 335.817 1096.25 317.004C1106.74 298.192 1107.57 277.082 1098.58 257.828L1095.28 250.785C1095.15 250.511 1095.11 250.218 1095.17 249.93C1095.22 249.643 1095.37 249.37 1095.59 249.133L1101.21 242.998C1108.97 234.584 1114.13 224.945 1116.28 214.805C1118.43 204.664 1117.53 194.286 1113.64 184.448C1109.75 174.61 1102.97 165.568 1093.82 158.002C1084.66 150.436 1073.37 144.542 1060.79 140.763L1050.4 137.641C1050.01 137.522 1049.67 137.327 1049.41 137.075C1049.15 136.823 1048.98 136.524 1048.92 136.207L1047.37 127.838C1043.33 105.655 1031.78 84.6466 1013.83 66.8723C995.879 49.0979 972.153 35.1671 944.974 26.4449C917.796 17.7226 888.098 14.5082 858.79 17.1165C829.482 19.7248 801.57 28.0664 777.788 41.3239L764.225 48.8208C763.76 49.0805 763.185 49.2034 762.609 49.1666C762.033 49.1299 761.494 48.9362 761.092 48.6212L749.491 39.4179C742.326 33.7469 733.726 29.232 724.207 26.144C714.688 23.056 704.445 21.4584 694.092 21.4469C673.911 21.4463 654.546 27.4939 640.211 38.2739C625.876 49.0539 617.731 63.6939 617.548 79.0084L617.381 90.7711C617.392 91.1958 617.207 91.61 616.857 91.9417C616.507 92.2734 616.015 92.5015 615.467 92.5864L600.278 94.9099C578.719 98.2001 558.661 105.697 542.082 116.661C525.503 127.625 512.975 141.678 505.731 157.435C498.488 173.192 496.78 190.11 500.776 206.52C504.772 222.931 514.333 238.268 528.518 251.021L537.009 258.663C537.322 258.945 537.515 259.291 537.562 259.658C537.609 260.024 537.508 260.393 537.272 260.714L530.91 269.464C527.623 273.954 525.007 278.71 523.112 283.641C518.736 295.149 518.429 307.329 522.222 318.956C526.015 330.583 533.774 341.247 544.719 349.877C555.664 358.507 569.41 364.799 584.575 368.119C599.74 371.44 615.79 371.673 631.111 368.794L643.645 366.434C644.106 366.347 644.592 366.365 645.039 366.488C645.487 366.611 645.876 366.833 646.156 367.124L653.739 375.057C676.224 398.624 709.722 414.785 747.385 420.234C785.048 425.683 824.031 420.009 856.365 404.373L875.334 395.297C875.684 395.101 876.097 394.982 876.53 394.952Z" fill="white"/>
<path d="M731.622 225.245L667.517 217.639L668.497 212.774C669.619 205.907 672.272 199.235 676.343 193.043C679.915 188.141 684.651 183.784 690.312 180.191C696.069 176.56 708.603 170.352 727.915 161.566C738.176 156.992 743.798 152.381 744.659 147.68C745.226 145.683 745.231 143.617 744.675 141.619C744.118 139.62 743.013 137.733 741.43 136.08C738.32 133.049 733.034 131.088 725.618 130.217C721.966 129.691 718.209 129.742 714.583 130.366C710.957 130.991 707.54 132.176 704.545 133.847C698.485 137.248 693.701 143.856 690.193 153.67L625.992 139.783C631.988 121.788 643.756 108.119 661.298 98.777C678.839 89.4345 703.349 86.6269 734.828 90.3542C759.354 93.2465 778.354 99.4668 791.829 109.015C810.136 121.94 817.495 137.151 813.907 154.65C812.3 162.026 808.075 168.929 801.684 174.618C795.018 180.741 782.524 187.7 764.201 195.493C751.444 200.999 743.152 205.64 739.325 209.416C735.045 214.118 732.396 219.561 731.622 225.245ZM662.661 230.346L731.335 238.46L721.911 284.422L653.236 276.308L662.661 230.346Z" fill="white"/>
<path d="M895.236 296.457L859.643 274.674L862.537 271.969C866.43 268.084 871.161 264.727 876.53 262.04C881.001 260.017 885.922 258.633 891.05 257.955C901.56 257.026 912.138 256.608 922.72 256.703C931.108 256.703 936.689 255.39 939.464 252.764C940.754 251.703 941.729 250.444 942.323 249.072C942.917 247.7 943.117 246.248 942.908 244.813C942.015 241.623 939.54 238.815 935.995 236.971C934.009 235.669 931.69 234.694 929.183 234.107C926.675 233.519 924.035 233.333 921.428 233.558C916.134 233.994 910.13 236.735 903.416 241.781L870.718 216.023C882.773 206.656 896.328 201.483 911.382 200.503C926.435 199.523 942.717 204.406 960.226 215.152C973.845 223.514 982.528 232.427 986.275 241.89C991.41 254.706 988.803 265.967 978.453 275.672C974.05 279.761 968.261 282.861 961.709 284.639C954.772 286.564 943.897 287.447 929.082 287.29C918.725 287.29 911.501 287.798 907.387 289.105C902.603 290.762 898.43 293.287 895.236 296.457ZM850.768 281.009L888.897 304.444L861.652 329.966L823.523 306.586L850.768 281.009Z" fill="white"/>
<path d="M905.186 139.221L889.781 123.247L891.886 122.067C894.769 120.368 898.002 119.043 901.454 118.146C904.303 117.523 907.28 117.307 910.233 117.51C916.192 118.145 922.09 119.079 927.886 120.306C932.527 121.213 935.851 121.105 937.885 119.979C938.793 119.534 939.568 118.948 940.157 118.26C940.747 117.571 941.138 116.796 941.305 115.986C941.398 114.121 940.541 112.301 938.913 110.903C938.064 109.971 936.972 109.181 935.705 108.581C934.438 107.982 933.022 107.586 931.546 107.418C928.556 107.091 924.729 107.926 920.064 109.959L906.98 92.1877C914.488 88.5008 923.528 87.0525 932.359 88.1215C940.843 89.247 948.872 93.7246 956.447 101.554C962.331 107.678 965.409 113.541 965.68 119.144C966.061 122.559 965.268 125.99 963.377 129.102C961.486 132.214 958.562 134.9 954.892 136.897C951.714 138.65 947.969 139.716 944.056 139.983C937.786 140.077 931.541 139.359 925.59 137.859C921.635 136.837 917.471 136.357 913.295 136.443C910.331 136.845 907.544 137.8 905.186 139.221ZM883.658 125.824L900.163 142.924L880.285 153.96L863.78 136.879L883.658 125.824Z" fill="white"/>
<path d="M310.989 365.708C290.77 365.681 270.936 361.51 253.581 353.637C229.303 342.745 212.152 325.645 206.315 306.821C189.389 305.926 173.477 300.364 161.581 291.182C149.685 282 142.625 269.834 141.731 256.975C136.636 254.292 132.131 251.014 128.384 247.263C119.283 238.462 114.786 227.42 115.757 216.257C116.729 205.093 123.099 194.596 133.646 186.779C129.644 173.872 130.066 160.402 134.871 147.653C139.676 134.905 148.705 123.303 161.096 113.954C173.487 104.606 188.827 97.8216 205.654 94.2494C222.48 90.6772 240.233 90.4357 257.217 93.5482C260.923 87.1252 266.767 81.5445 274.175 77.3546C281.584 73.1647 290.301 70.5098 299.471 69.651C308.641 68.7921 317.947 69.7588 326.476 72.456C335.004 75.1532 342.461 79.4881 348.113 85.0347C350.736 87.6092 352.945 90.4125 354.691 93.3848C368.065 91.717 381.779 92.6776 394.525 96.175C407.27 99.6724 418.623 105.59 427.498 113.363C436.374 121.136 442.477 130.506 445.224 140.577C447.972 150.649 447.274 161.087 443.195 170.896C451.952 176.557 458.388 184.003 461.74 192.354C465.092 200.705 465.22 209.61 462.109 218.014C458.998 226.419 452.778 233.97 444.186 239.775C435.594 245.58 424.99 249.394 413.63 250.767C408.505 265.481 397.12 278.499 381.242 287.798C371.249 293.685 359.764 297.946 347.503 300.313C335.243 302.681 322.471 303.104 309.985 301.557C309.745 319.183 315.127 343.09 341.081 360.19C341.331 360.359 341.518 360.576 341.623 360.819C341.728 361.061 341.747 361.32 341.679 361.569C341.607 361.819 341.447 362.05 341.215 362.235C340.983 362.421 340.688 362.555 340.363 362.622C330.812 364.695 320.923 365.734 310.989 365.708ZM232.986 94.2016C218.059 94.2362 203.336 96.8426 189.929 101.824C176.522 106.806 164.781 114.032 155.59 122.959C146.4 131.886 140.001 142.28 136.875 153.358C133.749 164.435 133.978 175.906 137.545 186.906C137.628 187.152 137.62 187.411 137.523 187.654C137.426 187.897 137.243 188.115 136.995 188.286C126.781 195.56 120.525 205.472 119.458 216.072C118.391 226.671 122.591 237.19 131.231 245.557C135.03 249.261 139.604 252.468 144.769 255.051C145.02 255.173 145.228 255.339 145.378 255.535C145.527 255.73 145.614 255.95 145.63 256.176C146.279 268.627 153.042 280.444 164.591 289.302C176.14 298.16 191.638 303.419 208.038 304.044C208.448 304.061 208.839 304.181 209.151 304.385C209.462 304.588 209.676 304.864 209.76 305.169C215.046 323.631 231.766 340.403 255.591 351.186C279.73 362.234 308.648 365.588 336.034 360.516C310.367 342.364 305.583 317.568 306.205 299.778C306.215 299.572 306.283 299.37 306.404 299.185C306.525 299 306.696 298.837 306.907 298.707C307.117 298.576 307.362 298.481 307.625 298.428C307.887 298.375 308.162 298.365 308.43 298.399C330.481 301.563 353.292 298.224 372.21 289.063C391.128 279.901 404.728 265.607 410.233 249.097C410.318 248.819 410.512 248.568 410.79 248.376C411.068 248.185 411.416 248.063 411.788 248.026C422.669 246.884 432.873 243.358 441.151 237.879C449.429 232.4 455.42 225.207 458.388 217.182C461.357 209.156 461.175 200.648 457.864 192.7C454.554 184.752 448.258 177.711 439.751 172.439C439.457 172.258 439.242 172.014 439.135 171.738C439.028 171.462 439.034 171.169 439.153 170.896C443.314 161.436 444.153 151.316 441.585 141.536C439.018 131.755 433.134 122.651 424.514 115.124C415.894 107.596 404.836 101.904 392.432 98.611C380.028 95.3176 366.706 94.5361 353.782 96.3436C353.359 96.4058 352.92 96.3548 352.541 96.1993C352.161 96.0437 351.865 95.7933 351.701 95.4905C347.954 88.5928 341.585 82.6984 333.406 78.5587C325.227 74.419 315.609 72.2217 305.778 72.247C295.947 72.2723 286.348 74.5191 278.207 78.7008C270.065 82.8825 263.749 88.8097 260.064 95.7264C259.889 96.0431 259.572 96.3026 259.169 96.4588C258.766 96.6149 258.304 96.6578 257.863 96.5796C249.735 94.9966 241.377 94.1977 232.986 94.2016Z" fill="#E6E6E6"/>
<path d="M244.611 214.008L211.578 219.907L210.812 217.402C209.562 213.904 209.117 210.269 209.497 206.656C209.95 203.754 211.11 200.941 212.917 198.36C216.962 193.263 221.436 188.37 226.312 183.711C230.116 179.954 231.647 176.886 230.881 174.472C230.646 173.418 230.117 172.414 229.329 171.528C228.541 170.642 227.512 169.894 226.312 169.334C223.449 168.276 220.157 168.1 217.127 168.844C215.221 169.137 213.415 169.725 211.823 170.571C210.23 171.418 208.884 172.505 207.87 173.764C205.813 176.323 205.215 180.226 206.052 185.508L171.44 188.304C169.417 179.621 171.683 170.676 177.803 163.181C183.878 156.029 195.041 151.006 211.291 148.114C223.92 145.851 234.74 146.027 243.75 148.641C255.965 152.162 263.476 158.437 266.283 167.465C267.449 171.29 267.201 175.285 265.565 179.01C263.97 182.967 259.721 188.207 252.816 194.73C248.032 199.304 245.217 202.789 244.372 205.185C243.477 208.095 243.559 211.128 244.611 214.008ZM212.511 226.714L247.912 220.397L255.16 244.068L219.878 250.312L212.511 226.714Z" fill="#EBEBEB"/>
<path d="M328.714 160.984L305.799 155.684L306.492 153.868C307.37 151.399 308.794 149.061 310.702 146.952C312.337 145.301 314.365 143.897 316.682 142.814C321.533 140.818 326.551 139.065 331.704 137.568C335.77 136.357 338.162 134.887 338.88 133.157C339.231 132.449 339.379 131.692 339.313 130.938C339.247 130.183 338.969 129.448 338.497 128.782C337.237 127.368 335.311 126.374 333.115 126.004C331.814 125.675 330.439 125.552 329.073 125.643C327.707 125.733 326.38 126.036 325.174 126.531C322.067 128.148 319.748 130.495 318.572 133.211L296.039 125.605C298.886 119.762 304.473 114.921 311.731 112.009C318.779 109.262 327.933 109.195 339.191 111.809C346.776 113.258 353.6 116.423 358.757 120.885C361.529 123.225 363.447 126.075 364.32 129.151C365.193 132.227 364.99 135.422 363.733 138.421C362.651 141.07 360.632 143.443 357.896 145.282C353.341 147.969 348.222 150.055 342.755 151.454C339.117 152.368 335.718 153.756 332.709 155.557C330.805 157.087 329.433 158.952 328.714 160.984ZM303.167 160.131L327.709 165.795L321.131 182.241L296.565 176.577L303.167 160.131Z" fill="#EBEBEB"/>
<path d="M602 735.999C858.141 735.999 1065.78 726.8 1065.78 715.451C1065.78 704.102 858.141 694.902 602 694.902C345.859 694.902 138.215 704.102 138.215 715.451C138.215 726.8 345.859 735.999 602 735.999Z" fill="#F5F5F5"/>
<path d="M381.003 298.439L378.802 297.731C380.532 294.849 381.7 291.792 382.271 288.655L384.663 288.855C384.063 292.167 382.831 295.396 381.003 298.439ZM380.07 277.673C377.845 273.9 374.384 270.624 370.016 268.155C365.649 265.686 360.521 264.107 355.121 263.568L355.504 261.753C361.296 262.337 366.794 264.037 371.475 266.69C376.156 269.343 379.864 272.862 382.247 276.91L380.07 277.673Z" fill="#A4133C"/>
<path d="M367.584 316.7L343.999 324.869L342.946 323.053C341.333 320.587 340.29 317.928 339.861 315.193C339.633 312.966 339.949 310.726 340.794 308.586C342.835 304.324 345.232 300.165 347.97 296.133C350.074 292.902 350.609 290.427 349.572 288.709C349.188 287.949 348.594 287.259 347.831 286.686C347.068 286.114 346.153 285.671 345.147 285.387C342.798 284.934 340.311 285.174 338.186 286.059C336.821 286.5 335.589 287.147 334.565 287.962C333.541 288.776 332.746 289.741 332.23 290.796C331.194 292.914 331.513 295.903 333.187 299.764L307.784 305.79C304.607 299.509 304.607 292.558 307.784 286.277C310.973 280.226 318.325 275.222 329.838 271.264C338.832 268.142 346.965 267.071 354.213 267.997C358.654 268.404 362.879 269.681 366.473 271.702C370.067 273.723 372.906 276.418 374.712 279.524C376.327 282.254 376.923 285.268 376.434 288.237C375.279 292.875 373.095 297.331 369.976 301.416C367.879 304.122 366.437 307.091 365.718 310.183C365.618 312.439 366.259 314.679 367.584 316.7ZM346.056 329.842L371.268 321.238L381.386 338.102L356.174 346.652L346.056 329.842Z" fill="#A4133C"/>
<path d="M309.315 357.053L297.355 369.397L295.824 368.435C293.491 367.207 291.446 365.691 289.772 363.951C288.501 362.5 287.601 360.88 287.117 359.177C286.344 355.689 285.889 352.165 285.754 348.63C285.562 345.817 284.677 343.983 283.122 343.185C282.469 342.764 281.702 342.457 280.876 342.284C280.05 342.112 279.184 342.078 278.338 342.186C276.508 342.55 274.932 343.434 273.937 344.655C273.225 345.346 272.707 346.141 272.414 346.99C272.122 347.839 272.063 348.725 272.239 349.592C273.07 351.913 274.875 353.966 277.382 355.437L263.03 366.892C257.715 363.528 254.216 358.799 253.199 353.604C252.321 348.594 254.825 343.058 260.709 336.995C264.359 332.839 269.578 329.619 275.683 327.755C278.912 326.743 282.434 326.388 285.899 326.725C289.364 327.063 292.653 328.081 295.441 329.679C297.916 331.072 299.836 332.957 300.991 335.125C302.526 338.636 303.27 342.318 303.191 346.016C303.109 348.485 303.611 350.944 304.674 353.277C305.781 354.811 307.376 356.109 309.315 357.053ZM301.254 372.229L314.075 359.014L329.432 367.6L316.61 380.815L301.254 372.229Z" fill="#A4133C"/>
<path d="M563.883 686.193C561.909 686.195 559.972 685.658 558.285 684.642C556.598 683.626 555.225 682.169 554.317 680.431C544.752 662.032 532.627 640.432 510.913 617.054C509.662 615.713 508.784 614.072 508.365 612.293C507.946 610.515 508 608.658 508.521 606.906C516.581 579.142 529.255 541.182 529.375 540.803C529.78 539.431 530.459 538.154 531.373 537.049C532.286 535.943 533.415 535.031 534.691 534.367C535.968 533.703 537.366 533.301 538.803 533.184C540.239 533.067 541.685 533.239 543.053 533.688C544.422 534.137 545.685 534.854 546.768 535.798C547.851 536.741 548.731 537.891 549.356 539.179C549.981 540.467 550.338 541.867 550.405 543.294C550.473 544.722 550.25 546.149 549.75 547.489C549.63 547.845 538.701 580.541 530.786 607.12C547.661 626.416 561.981 647.77 573.401 670.663C574.24 672.288 574.644 674.1 574.575 675.925C574.505 677.749 573.965 679.526 573.005 681.084C572.045 682.642 570.698 683.93 569.093 684.825C567.487 685.719 565.677 686.19 563.835 686.193H563.883Z" fill="#A4133C"/>
<path d="M581.747 694.727H498.549L542.647 669.927L579.595 671.349L581.747 694.727Z" fill="#263238"/>
<path d="M573.805 594.795C611.673 583.058 634.416 548.315 624.604 517.195C614.791 486.074 576.138 470.361 538.27 482.098C500.402 493.835 477.659 528.578 487.471 559.698C497.284 590.819 535.937 606.532 573.805 594.795Z" fill="#263238"/>
<path d="M366.734 499.738C364.258 499.728 361.861 498.87 359.95 497.309C358.039 495.748 356.73 493.581 356.246 491.173C355.762 488.765 356.132 486.266 357.294 484.098C358.456 481.93 360.337 480.226 362.621 479.276C364.479 478.506 366.111 477.283 367.365 475.72C368.619 474.157 369.455 472.306 369.795 470.337C370.009 468.022 370.984 465.84 372.569 464.127C374.155 462.414 376.263 461.264 378.571 460.853C381.235 460.314 383.869 459.642 386.463 458.838C401.003 454.641 419.01 449.354 475.687 465.145C531.599 434.156 532.244 376.019 532.244 373.505C532.244 370.688 533.368 367.985 535.371 365.986C537.374 363.987 540.093 362.855 542.934 362.836C545.765 362.836 548.482 363.944 550.493 365.92C552.504 367.896 553.646 370.58 553.672 373.387C553.672 376.493 553.337 449.472 481.929 486.01C479.495 487.261 476.668 487.533 474.037 486.768C419.991 471.309 404.686 475.719 392.561 479.252L389.261 480.201C387.666 484.391 385.221 488.212 382.079 491.43C378.937 494.647 375.163 497.192 370.991 498.908C369.643 499.467 368.195 499.75 366.734 499.738Z" fill="#263238"/>
<path d="M492.116 423.604C471.765 343.416 417.552 136.57 591.289 123.932C747.162 112.575 789.921 318.355 800.323 389.485C805.531 425.476 808.359 461.767 808.789 498.124C808.988 516.516 802.702 534.398 791.018 548.684C779.334 562.969 762.985 572.761 744.794 576.368C659.875 593.486 579.523 595.905 525.381 574.732C518.27 571.886 512.278 566.837 508.299 560.337C504.321 553.837 502.57 546.236 503.308 538.669C505.389 515.717 505.436 476.027 492.116 423.604Z" fill="#A4133C"/>
<path opacity="0.1" d="M800.419 389.531C790.614 322.384 752.064 135.833 617.092 123.978C609.393 123.205 601.635 124.708 594.796 128.298C587.957 131.889 582.343 137.407 578.662 144.156C572.636 155.726 572.827 169.739 581.843 183.609C611.496 229.441 682.45 387.516 671.736 473.654C666.954 512.847 642.059 544.144 663.629 588.197C690.896 585.831 717.998 581.872 744.795 576.342C762.985 572.736 779.334 562.944 791.018 548.659C802.702 534.373 808.988 516.49 808.789 498.099C808.388 461.768 805.592 425.501 800.419 389.531Z" fill="black"/>
<path d="M777.079 499.24C776.797 499.24 776.527 499.13 776.326 498.935C776.125 498.74 776.009 498.475 776.003 498.196C775.596 461.886 772.776 425.642 767.561 389.699C741.733 212.68 672.215 123.175 566.442 130.904C566.3 130.914 566.159 130.896 566.024 130.851C565.89 130.806 565.766 130.735 565.659 130.643C565.553 130.55 565.465 130.437 565.403 130.311C565.34 130.185 565.303 130.048 565.294 129.908C565.281 129.627 565.378 129.351 565.565 129.139C565.752 128.926 566.015 128.794 566.298 128.77C673.315 120.946 743.671 211.091 769.57 389.391C774.781 425.43 777.609 461.768 778.035 498.173C778.035 498.456 777.922 498.727 777.72 498.927C777.518 499.127 777.245 499.24 776.959 499.24H777.079Z" fill="#263238"/>
<path d="M775.455 600.444C813.323 588.707 836.067 553.964 826.254 522.843C816.442 491.723 777.789 476.009 739.921 487.746C702.053 499.483 679.309 534.226 689.122 565.347C698.934 596.467 737.587 612.181 775.455 600.444Z" fill="#263238"/>
<path d="M782.005 686.194C780.03 686.198 778.093 685.663 776.405 684.646C774.717 683.63 773.345 682.172 772.439 680.432C762.874 662.033 750.749 640.433 729.011 617.055C727.771 615.707 726.899 614.067 726.481 612.29C726.062 610.514 726.11 608.66 726.62 606.907C734.703 579.143 747.353 541.183 747.497 540.804C747.94 539.479 748.641 538.253 749.562 537.197C750.482 536.141 751.603 535.275 752.861 534.649C754.119 534.023 755.489 533.648 756.893 533.547C758.297 533.445 759.708 533.619 761.044 534.058C762.38 534.497 763.616 535.193 764.682 536.105C765.747 537.018 766.62 538.13 767.252 539.377C767.884 540.624 768.261 541.983 768.364 543.375C768.466 544.767 768.291 546.165 767.848 547.49C767.728 547.845 756.823 580.542 748.908 607.121C765.784 626.411 780.098 647.766 791.499 670.663C792.338 672.289 792.742 674.101 792.673 675.925C792.604 677.75 792.063 679.527 791.103 681.085C790.143 682.643 788.796 683.931 787.191 684.826C785.585 685.72 783.775 686.191 781.933 686.194H782.005Z" fill="#A4133C"/>
<path d="M759.478 362.005C757.079 362.007 754.749 361.211 752.859 359.747C750.969 358.282 749.628 356.232 749.051 353.924C748.473 351.616 748.691 349.182 749.671 347.011C750.65 344.841 752.335 343.057 754.456 341.947C756.513 340.856 803.217 315.557 816.322 254.765C785.234 241.866 729.226 212.727 716.982 198.074C715.777 196.657 714.954 194.96 714.591 193.142C713.177 184.387 713.999 175.42 716.982 167.061L711.339 156.249C710.032 153.734 709.787 150.807 710.657 148.113C711.527 145.418 713.441 143.177 715.978 141.881C718.515 140.586 721.467 140.343 724.185 141.205C726.903 142.068 729.163 143.966 730.47 146.481L738.577 162.035C739.449 163.662 739.877 165.488 739.819 167.331C739.76 169.173 739.216 170.968 738.242 172.538C736.054 176.872 735.126 181.724 735.564 186.551C749.362 198.904 804.915 228.138 832.249 238.168C834.566 239.019 836.515 240.638 837.766 242.751C839.017 244.864 839.493 247.341 839.112 249.762C826.988 327.46 767.035 359.468 764.5 360.796C762.951 361.599 761.226 362.014 759.478 362.005Z" fill="#263238"/>
<path d="M725.257 196.604C724.292 196.599 723.346 196.337 722.518 195.846C721.69 195.355 721.01 194.651 720.551 193.81C720.091 192.969 719.868 192.021 719.905 191.065C719.942 190.109 720.237 189.18 720.761 188.376C721.143 187.807 729.992 174.553 743.479 170.973C744.159 170.792 744.868 170.746 745.566 170.837C746.264 170.929 746.937 171.155 747.546 171.504C748.156 171.853 748.69 172.318 749.119 172.871C749.547 173.425 749.861 174.057 750.044 174.731C750.226 175.405 750.272 176.108 750.18 176.8C750.088 177.492 749.86 178.159 749.508 178.764C749.156 179.368 748.687 179.898 748.129 180.322C747.571 180.747 746.933 181.059 746.253 181.239C736.855 183.753 729.8 194.09 729.752 194.185C729.266 194.928 728.6 195.538 727.814 195.961C727.029 196.383 726.15 196.604 725.257 196.604Z" fill="#263238"/>
<path d="M799.869 694.727H716.671L760.769 669.927L797.717 671.349L799.869 694.727Z" fill="#263238"/>
<path d="M625.648 377.046C657.117 374.283 680.594 349.278 678.086 321.195C675.578 293.112 648.034 272.586 616.565 275.348C585.096 278.111 561.618 303.116 564.126 331.199C566.634 359.282 594.178 379.809 625.648 377.046Z" fill="white"/>
<path d="M614.959 358.534C623.304 356.177 626.561 342.056 622.234 326.994C617.906 311.932 607.633 301.632 599.287 303.989C590.942 306.346 587.685 320.467 592.012 335.529C596.34 350.591 606.613 360.891 614.959 358.534Z" fill="#263238"/>
<path d="M556.015 335.806C592.126 331.206 663.629 310.981 675.419 302.825C666.14 275.89 622.808 252.844 584.258 265.837C549.319 277.526 556.015 335.806 556.015 335.806Z" fill="#263238"/>
<path d="M563.022 353.113C607.861 344.673 666.14 330.494 682.809 321.413C681.78 350.387 673.243 379.763 627.519 389.698C590.117 397.783 563.022 353.113 563.022 353.113Z" fill="#263238"/>
<path d="M526.087 380.965C542.301 370.329 544.438 345.213 530.861 324.868C517.284 304.523 493.134 296.652 476.92 307.288C460.706 317.924 458.569 343.039 472.146 363.384C485.723 383.73 509.873 391.601 526.087 380.965Z" fill="white"/>
<path d="M502.304 344.862C505.006 357.57 502.662 368.169 497.043 368.572C491.423 368.975 484.679 358.945 481.953 346.237C479.226 333.528 481.594 322.954 487.19 322.527C492.786 322.1 499.577 332.153 502.304 344.862Z" fill="#263238"/>
<path d="M457.847 340.001C482.072 342.822 530.188 339.669 538.175 335.259C532.268 312.426 503.619 286.345 477.576 289.664C454.092 292.652 457.847 340.001 457.847 340.001Z" fill="#263238"/>
<path d="M462.343 354.963C492.451 356.315 531.694 355.556 542.886 351.359C541.858 374.145 535.832 395.863 505.078 395.507C479.968 395.223 462.343 354.963 462.343 354.963Z" fill="#263238"/>
<path d="M635.626 251.493C608.261 251.641 581.497 243.538 558.885 228.257C556.617 226.556 555.124 224.032 554.734 221.239C554.344 218.447 555.089 215.615 556.804 213.367C558.52 211.119 561.066 209.639 563.882 209.252C566.699 208.865 569.555 209.603 571.822 211.304C597.131 227.669 627.838 233.709 657.531 228.162C658.915 227.902 660.336 227.915 661.714 228.2C663.093 228.484 664.401 229.035 665.565 229.821C666.729 230.607 667.725 231.613 668.496 232.781C669.268 233.948 669.8 235.255 670.062 236.627C670.325 237.998 670.312 239.408 670.025 240.774C669.737 242.141 669.182 243.438 668.389 244.592C667.596 245.745 666.582 246.733 665.404 247.498C664.226 248.263 662.908 248.791 661.525 249.051C652.987 250.662 644.317 251.479 635.626 251.493Z" fill="#263238"/>
<path d="M443.81 233.165C442.093 233.157 440.403 232.741 438.881 231.952C437.359 231.164 436.049 230.026 435.061 228.634C434.074 227.241 433.436 225.635 433.202 223.948C432.969 222.262 433.145 220.544 433.718 218.939C439.385 203.243 448.832 193.071 461.745 188.661C485.133 180.671 510.339 196.201 511.415 196.865C513.764 198.395 515.414 200.778 516.011 203.501C516.608 206.224 516.104 209.071 514.608 211.43C513.111 213.789 510.742 215.472 508.008 216.118C505.273 216.764 502.393 216.321 499.984 214.885C495.201 211.873 479.968 204.903 468.657 208.791C462.152 211.044 457.321 216.71 453.901 226.147C453.15 228.203 451.778 229.979 449.972 231.235C448.167 232.49 446.015 233.164 443.81 233.165Z" fill="#263238"/>
<path d="M528.346 412.602C528.046 412.601 527.747 412.553 527.461 412.46C526.65 412.233 525.962 411.696 525.549 410.967C525.137 410.238 525.033 409.376 525.261 408.571C526.212 406.006 527.665 403.653 529.536 401.647C531.408 399.641 533.661 398.022 536.166 396.882C548.458 390.599 567.255 391.903 591.91 400.747C592.309 400.89 592.675 401.11 592.988 401.394C593.3 401.678 593.553 402.02 593.731 402.402C593.909 402.784 594.009 403.196 594.025 403.616C594.04 404.036 593.972 404.455 593.824 404.849C593.682 405.243 593.463 405.606 593.179 405.916C592.894 406.225 592.551 406.476 592.168 406.652C591.785 406.829 591.371 406.928 590.949 406.944C590.527 406.96 590.106 406.893 589.71 406.746C561.42 396.598 546.665 398.779 539.49 402.431C535.908 403.937 533.06 406.77 531.551 410.326C531.345 411.003 530.919 411.593 530.34 412.005C529.76 412.417 529.059 412.627 528.346 412.602Z" fill="#263238"/>
<path d="M427.069 400.912C389.65 404.209 353.257 414.804 319.981 432.091C338.443 428.629 404.518 509.694 421.497 572.193C452.849 560.694 489.39 552.846 528.346 546.705C504.743 482.285 461.578 409.282 427.069 400.912Z" fill="#A4133C"/>
<path opacity="0.6" d="M427.069 400.912C389.65 404.209 353.257 414.804 319.981 432.091C338.443 428.629 404.518 509.694 421.497 572.193C452.849 560.694 489.39 552.846 528.346 546.705C504.743 482.285 461.578 409.282 427.069 400.912Z" fill="white"/>
<path d="M427.069 400.913C386.224 396.337 319.91 430.242 319.91 430.242C308.168 437.664 311.348 451.581 317.757 457.485C323.903 448.736 392.441 425.975 418.197 422.916C405.403 411.156 417.312 402.525 427.069 400.913Z" fill="#A4133C"/>
<path opacity="0.2" d="M427.069 400.913C386.224 396.337 319.91 430.242 319.91 430.242C308.168 437.664 311.348 451.581 317.757 457.485C323.903 448.736 392.441 425.975 418.197 422.916C405.403 411.156 417.312 402.525 427.069 400.913Z" fill="white"/>
<path d="M366.758 499.735C364.977 499.742 363.223 499.313 361.65 498.486C360.077 497.658 358.735 496.459 357.742 494.993C349.97 483.138 354.824 465.142 355.877 461.633C356.773 459.03 358.65 456.872 361.116 455.611C363.581 454.351 366.443 454.085 369.102 454.869C371.761 455.654 374.01 457.428 375.378 459.821C376.747 462.213 377.128 465.038 376.443 467.703C374.697 473.654 374.339 481.265 375.726 483.351C377.278 485.716 377.82 488.595 377.233 491.356C376.645 494.117 374.976 496.534 372.593 498.075C370.856 499.188 368.825 499.765 366.758 499.735Z" fill="#263238"/>
<path d="M140.094 794.288C140.094 787.152 135.422 782.192 128.734 782.192C122.046 782.192 117.406 787.184 117.406 794.288C117.406 801.424 122.014 806.384 128.702 806.384C135.422 806.384 140.094 801.392 140.094 794.288ZM135.774 794.288C135.774 799.216 133.022 802.448 128.734 802.448C124.446 802.448 121.694 799.28 121.694 794.288C121.694 789.296 124.446 786.128 128.734 786.128C133.022 786.128 135.774 789.296 135.774 794.288ZM142.902 798.064C142.902 802.992 146.454 806.384 151.35 806.384C156.246 806.384 159.798 802.992 159.798 798.064C159.798 793.136 156.246 789.744 151.35 789.744C146.454 789.744 142.902 793.136 142.902 798.064ZM146.806 798.064C146.806 795.184 148.662 793.232 151.35 793.232C154.038 793.232 155.894 795.184 155.894 798.064C155.894 800.944 154.038 802.896 151.35 802.896C148.662 802.896 146.806 800.944 146.806 798.064ZM163.392 813.328H167.296V803.888C168.288 805.488 170.336 806.416 172.704 806.416C177.408 806.416 180.096 802.832 180.096 797.904C180.096 792.944 177.152 789.712 172.704 789.712C170.304 789.712 168.224 790.768 167.264 792.592L167.008 790.192H163.392V813.328ZM167.328 798.096C167.328 795.248 169.088 793.264 171.776 793.264C174.528 793.264 176.16 795.28 176.16 798.096C176.16 800.912 174.528 802.896 171.776 802.896C169.088 802.896 167.328 800.944 167.328 798.096ZM182.489 801.2C182.489 804.304 184.985 806.416 188.921 806.416C192.825 806.416 195.545 804.432 195.545 801.232C195.545 798.8 194.201 797.584 191.545 796.976L188.697 796.304C187.353 795.984 186.649 795.408 186.649 794.512C186.649 793.328 187.545 792.624 189.081 792.624C190.585 792.624 191.481 793.488 191.513 794.832H195.225C195.193 791.76 192.793 789.712 189.241 789.712C185.593 789.712 182.969 791.568 182.969 794.672C182.969 797.2 184.345 798.544 187.193 799.184L190.041 799.856C191.449 800.176 191.865 800.752 191.865 801.552C191.865 802.704 190.873 803.44 189.049 803.44C187.257 803.44 186.233 802.576 186.201 801.2H182.489ZM203.657 798.992C204.105 796.528 204.425 792.24 204.425 787.984V782.608H199.817V787.984C199.817 792.144 200.105 796.432 200.521 798.992H203.657ZM202.121 806.416C203.497 806.416 204.681 805.264 204.681 803.888C204.681 802.48 203.497 801.328 202.121 801.328C200.681 801.328 199.497 802.48 199.497 803.888C199.497 805.264 200.681 806.416 202.121 806.416ZM225.1 796.784V806H229.196V796.784L237.068 782.608H232.62L228.044 791.12C227.628 791.888 227.5 792.272 227.212 792.848C226.956 792.272 226.732 791.76 226.38 791.12L221.772 782.608H217.196L225.1 796.784ZM235.652 798.064C235.652 802.992 239.204 806.384 244.1 806.384C248.996 806.384 252.548 802.992 252.548 798.064C252.548 793.136 248.996 789.744 244.1 789.744C239.204 789.744 235.652 793.136 235.652 798.064ZM239.556 798.064C239.556 795.184 241.412 793.232 244.1 793.232C246.788 793.232 248.644 795.184 248.644 798.064C248.644 800.944 246.788 802.896 244.1 802.896C241.412 802.896 239.556 800.944 239.556 798.064ZM266.487 790.192V798.48C266.487 801.488 265.303 802.928 262.839 802.928C260.663 802.928 259.479 801.712 259.479 798.704V790.192H255.575V800.08C255.575 803.952 257.719 806.416 261.367 806.416C263.479 806.416 265.527 805.392 266.487 803.888L266.775 806H270.391V790.192H266.487ZM290.545 806.416C292.945 806.416 294.993 805.36 295.953 803.536L296.209 806H299.793V782.192H295.921V792.208C294.929 790.64 292.977 789.712 290.769 789.712C286.001 789.712 283.121 793.232 283.121 798.16C283.121 803.056 285.969 806.416 290.545 806.416ZM291.409 802.832C288.689 802.832 287.025 800.848 287.025 798.032C287.025 795.216 288.689 793.2 291.409 793.2C294.129 793.2 295.889 795.184 295.889 798.032C295.889 800.88 294.129 802.832 291.409 802.832ZM303.433 798.064C303.433 802.992 306.985 806.384 311.881 806.384C316.777 806.384 320.329 802.992 320.329 798.064C320.329 793.136 316.777 789.744 311.881 789.744C306.985 789.744 303.433 793.136 303.433 798.064ZM307.337 798.064C307.337 795.184 309.193 793.232 311.881 793.232C314.569 793.232 316.425 795.184 316.425 798.064C316.425 800.944 314.569 802.896 311.881 802.896C309.193 802.896 307.337 800.944 307.337 798.064ZM336.953 806V797.488C336.953 794.928 338.425 793.264 340.825 793.264C342.841 793.264 344.153 794.544 344.153 797.2V806H348.057V796.272C348.057 792.176 346.009 789.712 342.041 789.712C339.897 789.712 337.977 790.64 336.985 792.24L336.665 790.192H333.049V806H336.953ZM351.464 798.064C351.464 802.992 355.016 806.384 359.912 806.384C364.808 806.384 368.36 802.992 368.36 798.064C368.36 793.136 364.808 789.744 359.912 789.744C355.016 789.744 351.464 793.136 351.464 798.064ZM355.368 798.064C355.368 795.184 357.224 793.232 359.912 793.232C362.6 793.232 364.456 795.184 364.456 798.064C364.456 800.944 362.6 802.896 359.912 802.896C357.224 802.896 355.368 800.944 355.368 798.064ZM377.175 806V793.456H380.247V790.192H377.175V785.264H373.271V790.192H370.231V793.456H373.271V806H377.175ZM396.203 806V797.36C396.203 794.992 397.643 793.264 400.107 793.264C402.091 793.264 403.403 794.544 403.403 797.2V806H407.307V796.272C407.307 792.176 405.259 789.712 401.355 789.712C399.083 789.712 397.227 790.704 396.235 792.24V782.192H392.299V806H396.203ZM416.346 806.416C418.81 806.416 420.954 805.296 421.626 803.664L421.914 806H425.338V796.4C425.338 792.016 422.714 789.712 418.458 789.712C414.17 789.712 411.354 791.952 411.354 795.376H414.682C414.682 793.712 415.962 792.752 418.266 792.752C420.25 792.752 421.53 793.616 421.53 795.76V796.112L416.794 796.464C413.05 796.752 410.938 798.576 410.938 801.488C410.938 804.464 412.986 806.416 416.346 806.416ZM417.626 803.472C415.866 803.472 414.906 802.768 414.906 801.328C414.906 800.048 415.834 799.248 418.266 799.024L421.562 798.768V799.6C421.562 802.032 420.026 803.472 417.626 803.472ZM433.529 806H437.369L443.961 790.192H439.929L437.049 797.456C436.377 799.184 435.801 800.848 435.577 801.84C435.385 800.976 434.841 799.344 434.169 797.456L431.417 790.192H427.257L433.529 806ZM452.996 806.416C457.124 806.416 460.004 804.336 460.676 800.88H457.06C456.612 802.384 455.204 803.216 453.06 803.216C450.468 803.216 448.996 801.808 448.708 799.024L460.612 798.992V797.808C460.612 792.88 457.604 789.712 452.868 789.712C448.228 789.712 444.996 793.136 444.996 798.096C444.996 802.992 448.292 806.416 452.996 806.416ZM452.9 792.912C455.236 792.912 456.74 794.352 456.74 796.528H448.804C449.188 794.16 450.596 792.912 452.9 792.912ZM478.065 806.416C480.529 806.416 482.673 805.296 483.345 803.664L483.633 806H487.057V796.4C487.057 792.016 484.433 789.712 480.177 789.712C475.889 789.712 473.073 791.952 473.073 795.376H476.401C476.401 793.712 477.681 792.752 479.985 792.752C481.969 792.752 483.249 793.616 483.249 795.76V796.112L478.513 796.464C474.769 796.752 472.657 798.576 472.657 801.488C472.657 804.464 474.705 806.416 478.065 806.416ZM479.345 803.472C477.585 803.472 476.625 802.768 476.625 801.328C476.625 800.048 477.553 799.248 479.985 799.024L483.281 798.768V799.6C483.281 802.032 481.745 803.472 479.345 803.472ZM490.464 798.064C490.464 803.088 493.6 806.416 498.4 806.416C502.528 806.416 505.6 803.888 506.08 800.208H502.144C501.728 801.936 500.352 802.896 498.4 802.896C495.904 802.896 494.368 801.04 494.368 798.064C494.368 795.088 496.032 793.2 498.528 793.2C500.384 793.2 501.696 794.128 502.144 795.92H506.048C505.632 792.112 502.688 789.712 498.368 789.712C493.696 789.712 490.464 793.168 490.464 798.064ZM508.558 798.064C508.558 803.088 511.694 806.416 516.494 806.416C520.622 806.416 523.694 803.888 524.174 800.208H520.238C519.822 801.936 518.446 802.896 516.494 802.896C513.998 802.896 512.462 801.04 512.462 798.064C512.462 795.088 514.126 793.2 516.622 793.2C518.478 793.2 519.79 794.128 520.238 795.92H524.142C523.726 792.112 520.782 789.712 516.462 789.712C511.79 789.712 508.558 793.168 508.558 798.064ZM534.652 806.416C538.78 806.416 541.66 804.336 542.332 800.88H538.716C538.268 802.384 536.86 803.216 534.716 803.216C532.124 803.216 530.652 801.808 530.364 799.024L542.268 798.992V797.808C542.268 792.88 539.26 789.712 534.524 789.712C529.884 789.712 526.652 793.136 526.652 798.096C526.652 802.992 529.948 806.416 534.652 806.416ZM534.556 792.912C536.892 792.912 538.396 794.352 538.396 796.528H530.46C530.844 794.16 532.252 792.912 534.556 792.912ZM544.676 801.2C544.676 804.304 547.172 806.416 551.108 806.416C555.012 806.416 557.732 804.432 557.732 801.232C557.732 798.8 556.388 797.584 553.732 796.976L550.884 796.304C549.54 795.984 548.836 795.408 548.836 794.512C548.836 793.328 549.732 792.624 551.268 792.624C552.772 792.624 553.668 793.488 553.7 794.832H557.412C557.38 791.76 554.98 789.712 551.428 789.712C547.78 789.712 545.156 791.568 545.156 794.672C545.156 797.2 546.532 798.544 549.38 799.184L552.228 799.856C553.636 800.176 554.052 800.752 554.052 801.552C554.052 802.704 553.06 803.44 551.236 803.44C549.444 803.44 548.42 802.576 548.388 801.2H544.676ZM559.989 801.2C559.989 804.304 562.485 806.416 566.421 806.416C570.325 806.416 573.045 804.432 573.045 801.232C573.045 798.8 571.701 797.584 569.045 796.976L566.197 796.304C564.853 795.984 564.149 795.408 564.149 794.512C564.149 793.328 565.045 792.624 566.581 792.624C568.085 792.624 568.981 793.488 569.013 794.832H572.725C572.693 791.76 570.293 789.712 566.741 789.712C563.093 789.712 560.469 791.568 560.469 794.672C560.469 797.2 561.845 798.544 564.693 799.184L567.541 799.856C568.949 800.176 569.365 800.752 569.365 801.552C569.365 802.704 568.373 803.44 566.549 803.44C564.757 803.44 563.733 802.576 563.701 801.2H559.989ZM591.018 806V793.456H594.09V790.192H591.018V785.264H587.114V790.192H584.074V793.456H587.114V806H591.018ZM595.933 798.064C595.933 802.992 599.485 806.384 604.381 806.384C609.277 806.384 612.829 802.992 612.829 798.064C612.829 793.136 609.277 789.744 604.381 789.744C599.485 789.744 595.933 793.136 595.933 798.064ZM599.837 798.064C599.837 795.184 601.693 793.232 604.381 793.232C607.069 793.232 608.925 795.184 608.925 798.064C608.925 800.944 607.069 802.896 604.381 802.896C601.693 802.896 599.837 800.944 599.837 798.064ZM625.549 813.328H629.453V803.888C630.445 805.488 632.493 806.416 634.861 806.416C639.565 806.416 642.253 802.832 642.253 797.904C642.253 792.944 639.309 789.712 634.861 789.712C632.461 789.712 630.381 790.768 629.421 792.592L629.165 790.192H625.549V813.328ZM629.485 798.096C629.485 795.248 631.245 793.264 633.933 793.264C636.685 793.264 638.317 795.28 638.317 798.096C638.317 800.912 636.685 802.896 633.933 802.896C631.245 802.896 629.485 800.944 629.485 798.096ZM650.565 806.416C653.029 806.416 655.173 805.296 655.845 803.664L656.133 806H659.557V796.4C659.557 792.016 656.933 789.712 652.677 789.712C648.389 789.712 645.573 791.952 645.573 795.376H648.901C648.901 793.712 650.181 792.752 652.485 792.752C654.469 792.752 655.749 793.616 655.749 795.76V796.112L651.013 796.464C647.269 796.752 645.157 798.576 645.157 801.488C645.157 804.464 647.205 806.416 650.565 806.416ZM651.845 803.472C650.085 803.472 649.125 802.768 649.125 801.328C649.125 800.048 650.053 799.248 652.485 799.024L655.781 798.768V799.6C655.781 802.032 654.245 803.472 651.845 803.472ZM662.996 797.744C662.996 802.32 665.94 805.68 670.42 805.68C672.692 805.68 674.644 804.752 675.636 803.28V805.904C675.636 808.528 673.908 810.224 671.22 810.224C668.82 810.224 667.252 809.008 666.996 806.96H663.092C663.572 811.184 666.676 813.776 671.22 813.776C676.34 813.776 679.508 810.48 679.508 805.2V790.192H675.892L675.668 792.368C674.74 790.672 672.884 789.68 670.516 789.68C666.004 789.68 662.996 793.136 662.996 797.744ZM666.932 797.648C666.932 795.056 668.596 793.104 671.188 793.104C673.908 793.104 675.54 794.96 675.54 797.648C675.54 800.4 673.876 802.288 671.188 802.288C668.628 802.288 666.932 800.304 666.932 797.648ZM691.121 806.416C695.249 806.416 698.129 804.336 698.801 800.88H695.185C694.737 802.384 693.329 803.216 691.185 803.216C688.593 803.216 687.121 801.808 686.833 799.024L698.737 798.992V797.808C698.737 792.88 695.729 789.712 690.993 789.712C686.353 789.712 683.121 793.136 683.121 798.096C683.121 802.992 686.417 806.416 691.121 806.416ZM691.025 792.912C693.361 792.912 694.865 794.352 694.865 796.528H686.929C687.313 794.16 688.721 792.912 691.025 792.912ZM706.608 804.592C706.608 802.608 705.456 801.296 703.856 801.296C702.416 801.296 701.424 802.32 701.424 803.856C701.424 805.136 702.448 806.064 703.696 806.064C704.08 806.064 704.368 806 704.624 805.872C704.624 806.992 703.536 807.856 702.096 808.112V809.68C704.688 809.36 706.608 807.248 706.608 804.592ZM730.794 806.384C736.33 806.384 740.618 803.12 741.514 798.192H737.258C736.49 800.784 734.058 802.448 730.89 802.448C726.602 802.448 723.85 799.248 723.85 794.288C723.85 789.296 726.57 786.16 730.89 786.16C733.994 786.16 736.33 787.76 737.13 790.48H741.45C740.65 785.456 736.522 782.224 730.986 782.224C724.138 782.224 719.562 787.056 719.562 794.32C719.562 801.648 723.978 806.384 730.794 806.384ZM744.183 798.064C744.183 802.992 747.735 806.384 752.631 806.384C757.527 806.384 761.079 802.992 761.079 798.064C761.079 793.136 757.527 789.744 752.631 789.744C747.735 789.744 744.183 793.136 744.183 798.064ZM748.087 798.064C748.087 795.184 749.943 793.232 752.631 793.232C755.319 793.232 757.175 795.184 757.175 798.064C757.175 800.944 755.319 802.896 752.631 802.896C749.943 802.896 748.087 800.944 748.087 798.064ZM768.578 806V797.488C768.578 794.928 770.05 793.264 772.45 793.264C774.466 793.264 775.778 794.544 775.778 797.2V806H779.682V796.272C779.682 792.176 777.634 789.712 773.666 789.712C771.522 789.712 769.602 790.64 768.61 792.24L768.29 790.192H764.674V806H768.578ZM789.393 806V793.456H792.465V790.192H789.393V785.264H785.489V790.192H782.449V793.456H785.489V806H789.393ZM800.003 806.416C802.467 806.416 804.611 805.296 805.283 803.664L805.571 806H808.995V796.4C808.995 792.016 806.371 789.712 802.115 789.712C797.827 789.712 795.011 791.952 795.011 795.376H798.339C798.339 793.712 799.619 792.752 801.923 792.752C803.907 792.752 805.187 793.616 805.187 795.76V796.112L800.451 796.464C796.707 796.752 794.595 798.576 794.595 801.488C794.595 804.464 796.643 806.416 800.003 806.416ZM801.283 803.472C799.523 803.472 798.563 802.768 798.563 801.328C798.563 800.048 799.491 799.248 801.923 799.024L805.219 798.768V799.6C805.219 802.032 803.683 803.472 801.283 803.472ZM812.402 798.064C812.402 803.088 815.538 806.416 820.338 806.416C824.466 806.416 827.538 803.888 828.018 800.208H824.082C823.666 801.936 822.29 802.896 820.338 802.896C817.842 802.896 816.306 801.04 816.306 798.064C816.306 795.088 817.97 793.2 820.466 793.2C822.322 793.2 823.634 794.128 824.082 795.92H827.986C827.57 792.112 824.626 789.712 820.306 789.712C815.634 789.712 812.402 793.168 812.402 798.064ZM836.8 806V793.456H839.872V790.192H836.8V785.264H832.896V790.192H829.856V793.456H832.896V806H836.8ZM851.156 789.136C851.156 792.72 853.236 794.992 857.204 795.856L860.916 796.688C862.836 797.104 863.636 798.032 863.636 799.6C863.636 801.552 861.908 802.736 859.188 802.736C856.564 802.736 854.964 801.552 854.932 799.568H850.836C850.932 803.76 854.196 806.416 859.188 806.416C864.34 806.416 867.732 803.6 867.732 799.248C867.732 795.76 865.78 793.712 861.78 792.848L858.1 792.048C856.148 791.6 855.252 790.672 855.252 789.008C855.252 787.056 856.884 785.84 859.412 785.84C861.716 785.84 863.156 787.024 863.252 789.04H867.348C867.22 784.816 864.212 782.192 859.476 782.192C854.548 782.192 851.156 785.04 851.156 789.136ZM882.081 790.192V798.48C882.081 801.488 880.897 802.928 878.433 802.928C876.257 802.928 875.073 801.712 875.073 798.704V790.192H871.169V800.08C871.169 803.952 873.313 806.416 876.961 806.416C879.073 806.416 881.121 805.392 882.081 803.888L882.369 806H885.985V790.192H882.081ZM890.517 813.328H894.421V803.888C895.413 805.488 897.461 806.416 899.829 806.416C904.533 806.416 907.221 802.832 907.221 797.904C907.221 792.944 904.277 789.712 899.829 789.712C897.429 789.712 895.349 790.768 894.389 792.592L894.133 790.192H890.517V813.328ZM894.453 798.096C894.453 795.248 896.213 793.264 898.901 793.264C901.653 793.264 903.285 795.28 903.285 798.096C903.285 800.912 901.653 802.896 898.901 802.896C896.213 802.896 894.453 800.944 894.453 798.096ZM910.83 813.328H914.734V803.888C915.726 805.488 917.774 806.416 920.142 806.416C924.846 806.416 927.534 802.832 927.534 797.904C927.534 792.944 924.59 789.712 920.142 789.712C917.742 789.712 915.662 790.768 914.702 792.592L914.446 790.192H910.83V813.328ZM914.766 798.096C914.766 795.248 916.526 793.264 919.214 793.264C921.966 793.264 923.598 795.28 923.598 798.096C923.598 800.912 921.966 802.896 919.214 802.896C916.526 802.896 914.766 800.944 914.766 798.096ZM930.214 798.064C930.214 802.992 933.766 806.384 938.662 806.384C943.558 806.384 947.11 802.992 947.11 798.064C947.11 793.136 943.558 789.744 938.662 789.744C933.766 789.744 930.214 793.136 930.214 798.064ZM934.118 798.064C934.118 795.184 935.974 793.232 938.662 793.232C941.35 793.232 943.206 795.184 943.206 798.064C943.206 800.944 941.35 802.896 938.662 802.896C935.974 802.896 934.118 800.944 934.118 798.064ZM960.625 790.128C959.985 789.968 959.441 789.904 958.897 789.904C956.785 789.904 955.281 790.96 954.609 792.528L954.385 790.224H950.705V806H954.609V798.32C954.609 795.248 956.369 793.744 959.185 793.744H960.625V790.128ZM969.768 806V793.456H972.84V790.192H969.768V785.264H965.864V790.192H962.824V793.456H965.864V806H969.768ZM990.268 806V793.456H993.34V790.192H990.268V785.264H986.364V790.192H983.324V793.456H986.364V806H990.268ZM1003.18 806.416C1007.31 806.416 1010.19 804.336 1010.86 800.88H1007.25C1006.8 802.384 1005.39 803.216 1003.25 803.216C1000.66 803.216 999.183 801.808 998.895 799.024L1010.8 798.992V797.808C1010.8 792.88 1007.79 789.712 1003.06 789.712C998.415 789.712 995.183 793.136 995.183 798.096C995.183 802.992 998.479 806.416 1003.18 806.416ZM1003.09 792.912C1005.42 792.912 1006.93 794.352 1006.93 796.528H998.991C999.375 794.16 1000.78 792.912 1003.09 792.912ZM1018.97 806.416C1021.44 806.416 1023.58 805.296 1024.25 803.664L1024.54 806H1027.96V796.4C1027.96 792.016 1025.34 789.712 1021.08 789.712C1016.8 789.712 1013.98 791.952 1013.98 795.376H1017.31C1017.31 793.712 1018.59 792.752 1020.89 792.752C1022.88 792.752 1024.16 793.616 1024.16 795.76V796.112L1019.42 796.464C1015.68 796.752 1013.56 798.576 1013.56 801.488C1013.56 804.464 1015.61 806.416 1018.97 806.416ZM1020.25 803.472C1018.49 803.472 1017.53 802.768 1017.53 801.328C1017.53 800.048 1018.46 799.248 1020.89 799.024L1024.19 798.768V799.6C1024.19 802.032 1022.65 803.472 1020.25 803.472ZM1036.2 806V797.04C1036.2 794.48 1037.71 793.264 1039.56 793.264C1041.42 793.264 1042.6 794.448 1042.6 796.656V806H1046.51V797.04C1046.51 794.448 1047.95 793.232 1049.83 793.232C1051.69 793.232 1052.91 794.416 1052.91 796.688V806H1056.78V795.664C1056.78 792.016 1054.67 789.712 1050.83 789.712C1048.43 789.712 1046.57 790.896 1045.77 792.72C1044.94 790.896 1043.27 789.712 1040.87 789.712C1038.6 789.712 1037 790.736 1036.2 792.048L1035.88 790.192H1032.3V806H1036.2ZM627.637 833.192V836.456H629.909V849H633.781V836.456H637.557V833.192H633.781V831.272C633.781 829.704 634.261 828.68 636.245 828.68H637.621V825.352C636.949 825.224 636.213 825.192 635.605 825.192C632.181 825.192 629.909 826.984 629.909 831.272V833.192H627.637ZM639.152 841.064C639.152 845.992 642.704 849.384 647.6 849.384C652.496 849.384 656.048 845.992 656.048 841.064C656.048 836.136 652.496 832.744 647.6 832.744C642.704 832.744 639.152 836.136 639.152 841.064ZM643.056 841.064C643.056 838.184 644.912 836.232 647.6 836.232C650.288 836.232 652.144 838.184 652.144 841.064C652.144 843.944 650.288 845.896 647.6 845.896C644.912 845.896 643.056 843.944 643.056 841.064ZM669.562 833.128C668.922 832.968 668.378 832.904 667.834 832.904C665.722 832.904 664.218 833.96 663.546 835.528L663.322 833.224H659.642V849H663.546V841.32C663.546 838.248 665.306 836.744 668.122 836.744H669.562V833.128ZM685.734 849V840.04C685.734 837.48 687.238 836.264 689.094 836.264C690.95 836.264 692.134 837.448 692.134 839.656V849H696.038V840.04C696.038 837.448 697.478 836.232 699.366 836.232C701.222 836.232 702.438 837.416 702.438 839.688V849H706.31V838.664C706.31 835.016 704.198 832.712 700.358 832.712C697.958 832.712 696.102 833.896 695.302 835.72C694.47 833.896 692.806 832.712 690.406 832.712C688.134 832.712 686.534 833.736 685.734 835.048L685.414 833.192H681.83V849H685.734ZM709.714 841.064C709.714 845.992 713.266 849.384 718.162 849.384C723.058 849.384 726.61 845.992 726.61 841.064C726.61 836.136 723.058 832.744 718.162 832.744C713.266 832.744 709.714 836.136 709.714 841.064ZM713.618 841.064C713.618 838.184 715.474 836.232 718.162 836.232C720.85 836.232 722.706 838.184 722.706 841.064C722.706 843.944 720.85 845.896 718.162 845.896C715.474 845.896 713.618 843.944 713.618 841.064ZM740.125 833.128C739.485 832.968 738.941 832.904 738.397 832.904C736.285 832.904 734.781 833.96 734.109 835.528L733.885 833.224H730.205V849H734.109V841.32C734.109 838.248 735.869 836.744 738.685 836.744H740.125V833.128ZM749.808 849.416C753.936 849.416 756.816 847.336 757.488 843.88H753.872C753.424 845.384 752.016 846.216 749.872 846.216C747.28 846.216 745.808 844.808 745.52 842.024L757.424 841.992V840.808C757.424 835.88 754.416 832.712 749.68 832.712C745.04 832.712 741.808 836.136 741.808 841.096C741.808 845.992 745.104 849.416 749.808 849.416ZM749.712 835.912C752.048 835.912 753.552 837.352 753.552 839.528H745.616C746 837.16 747.408 835.912 749.712 835.912ZM770.174 856.328H774.078V846.888C775.07 848.488 777.118 849.416 779.486 849.416C784.19 849.416 786.878 845.832 786.878 840.904C786.878 835.944 783.934 832.712 779.486 832.712C777.086 832.712 775.006 833.768 774.046 835.592L773.79 833.192H770.174V856.328ZM774.11 841.096C774.11 838.248 775.87 836.264 778.558 836.264C781.31 836.264 782.942 838.28 782.942 841.096C782.942 843.912 781.31 845.896 778.558 845.896C775.87 845.896 774.11 843.944 774.11 841.096ZM800.406 833.128C799.766 832.968 799.222 832.904 798.678 832.904C796.566 832.904 795.062 833.96 794.39 835.528L794.166 833.224H790.486V849H794.39V841.32C794.39 838.248 796.15 836.744 798.966 836.744H800.406V833.128ZM802.089 841.064C802.089 845.992 805.641 849.384 810.537 849.384C815.433 849.384 818.985 845.992 818.985 841.064C818.985 836.136 815.433 832.744 810.537 832.744C805.641 832.744 802.089 836.136 802.089 841.064ZM805.993 841.064C805.993 838.184 807.849 836.232 810.537 836.232C813.225 836.232 815.081 838.184 815.081 841.064C815.081 843.944 813.225 845.896 810.537 845.896C807.849 845.896 805.993 843.944 805.993 841.064ZM829.076 849.416C831.476 849.416 833.524 848.36 834.484 846.536L834.74 849H838.324V825.192H834.452V835.208C833.46 833.64 831.508 832.712 829.3 832.712C824.532 832.712 821.652 836.232 821.652 841.16C821.652 846.056 824.5 849.416 829.076 849.416ZM829.94 845.832C827.22 845.832 825.556 843.848 825.556 841.032C825.556 838.216 827.22 836.2 829.94 836.2C832.66 836.2 834.42 838.184 834.42 841.032C834.42 843.88 832.66 845.832 829.94 845.832ZM853.612 833.192V841.48C853.612 844.488 852.428 845.928 849.964 845.928C847.788 845.928 846.604 844.712 846.604 841.704V833.192H842.7V843.08C842.7 846.952 844.844 849.416 848.492 849.416C850.604 849.416 852.652 848.392 853.612 846.888L853.9 849H857.516V833.192H853.612ZM860.808 841.064C860.808 846.088 863.944 849.416 868.744 849.416C872.872 849.416 875.944 846.888 876.424 843.208H872.488C872.072 844.936 870.696 845.896 868.744 845.896C866.248 845.896 864.712 844.04 864.712 841.064C864.712 838.088 866.376 836.2 868.872 836.2C870.728 836.2 872.04 837.128 872.488 838.92H876.392C875.976 835.112 873.032 832.712 868.712 832.712C864.04 832.712 860.808 836.168 860.808 841.064ZM885.206 849V836.456H888.278V833.192H885.206V828.264H881.302V833.192H878.262V836.456H881.302V849H885.206ZM902.282 830.024C903.562 830.024 904.618 828.968 904.618 827.656C904.618 826.344 903.562 825.32 902.282 825.32C900.938 825.32 899.882 826.344 899.882 827.656C899.882 828.968 900.938 830.024 902.282 830.024ZM900.33 849H904.234V833.192H900.33V849ZM912.671 849V840.488C912.671 837.928 914.143 836.264 916.543 836.264C918.559 836.264 919.871 837.544 919.871 840.2V849H923.775V839.272C923.775 835.176 921.727 832.712 917.759 832.712C915.615 832.712 913.695 833.64 912.703 835.24L912.383 833.192H908.767V849H912.671ZM926.708 844.2C926.708 847.304 929.204 849.416 933.14 849.416C937.044 849.416 939.764 847.432 939.764 844.232C939.764 841.8 938.42 840.584 935.764 839.976L932.916 839.304C931.572 838.984 930.868 838.408 930.868 837.512C930.868 836.328 931.764 835.624 933.3 835.624C934.804 835.624 935.7 836.488 935.732 837.832H939.444C939.412 834.76 937.012 832.712 933.46 832.712C929.812 832.712 927.188 834.568 927.188 837.672C927.188 840.2 928.564 841.544 931.412 842.184L934.26 842.856C935.668 843.176 936.084 843.752 936.084 844.552C936.084 845.704 935.092 846.44 933.268 846.44C931.476 846.44 930.452 845.576 930.42 844.2H926.708ZM945.188 830.024C946.468 830.024 947.524 828.968 947.524 827.656C947.524 826.344 946.468 825.32 945.188 825.32C943.844 825.32 942.788 826.344 942.788 827.656C942.788 828.968 943.844 830.024 945.188 830.024ZM943.236 849H947.14V833.192H943.236V849ZM950.778 840.744C950.778 845.32 953.722 848.68 958.202 848.68C960.474 848.68 962.426 847.752 963.418 846.28V848.904C963.418 851.528 961.69 853.224 959.002 853.224C956.602 853.224 955.034 852.008 954.778 849.96H950.874C951.354 854.184 954.458 856.776 959.002 856.776C964.122 856.776 967.29 853.48 967.29 848.2V833.192H963.674L963.45 835.368C962.522 833.672 960.666 832.68 958.298 832.68C953.786 832.68 950.778 836.136 950.778 840.744ZM954.714 840.648C954.714 838.056 956.378 836.104 958.97 836.104C961.69 836.104 963.322 837.96 963.322 840.648C963.322 843.4 961.658 845.288 958.97 845.288C956.41 845.288 954.714 843.304 954.714 840.648ZM975.734 849V840.36C975.734 837.992 977.174 836.264 979.638 836.264C981.622 836.264 982.934 837.544 982.934 840.2V849H986.838V839.272C986.838 835.176 984.79 832.712 980.886 832.712C978.614 832.712 976.758 833.704 975.766 835.24V825.192H971.83V849H975.734ZM996.55 849V836.456H999.622V833.192H996.55V828.264H992.646V833.192H989.606V836.456H992.646V849H996.55ZM1004.2 849.384C1005.61 849.384 1006.8 848.232 1006.8 846.856C1006.8 845.448 1005.61 844.296 1004.2 844.296C1002.8 844.296 1001.61 845.448 1001.61 846.856C1001.61 848.232 1002.8 849.384 1004.2 849.384Z" fill="#4D4D4D"/>
<path d="M122.078 849V840.04C122.078 837.48 123.582 836.264 125.438 836.264C127.294 836.264 128.478 837.448 128.478 839.656V849H132.382V840.04C132.382 837.448 133.822 836.232 135.71 836.232C137.566 836.232 138.782 837.416 138.782 839.688V849H142.654V838.664C142.654 835.016 140.542 832.712 136.702 832.712C134.302 832.712 132.446 833.896 131.646 835.72C130.814 833.896 129.15 832.712 126.75 832.712C124.478 832.712 122.878 833.736 122.078 835.048L121.758 833.192H118.174V849H122.078ZM151.69 849.416C154.154 849.416 156.298 848.296 156.97 846.664L157.258 849H160.682V839.4C160.682 835.016 158.058 832.712 153.802 832.712C149.514 832.712 146.698 834.952 146.698 838.376H150.026C150.026 836.712 151.306 835.752 153.61 835.752C155.594 835.752 156.874 836.616 156.874 838.76V839.112L152.138 839.464C148.394 839.752 146.282 841.576 146.282 844.488C146.282 847.464 148.33 849.416 151.69 849.416ZM152.97 846.472C151.21 846.472 150.25 845.768 150.25 844.328C150.25 843.048 151.178 842.248 153.61 842.024L156.906 841.768V842.6C156.906 845.032 155.37 846.472 152.97 846.472ZM174.937 833.128C174.297 832.968 173.753 832.904 173.209 832.904C171.097 832.904 169.593 833.96 168.921 835.528L168.697 833.224H165.017V849H168.921V841.32C168.921 838.248 170.681 836.744 173.497 836.744H174.937V833.128ZM182.016 849V844.744L184.32 842.344L188.448 849H192.928L187.04 839.464L193.056 833.192H188.16L182.016 839.816V825.192H178.144V849H182.016ZM202.152 849.416C206.28 849.416 209.16 847.336 209.832 843.88H206.216C205.768 845.384 204.36 846.216 202.216 846.216C199.624 846.216 198.152 844.808 197.864 842.024L209.768 841.992V840.808C209.768 835.88 206.76 832.712 202.024 832.712C197.384 832.712 194.152 836.136 194.152 841.096C194.152 845.992 197.448 849.416 202.152 849.416ZM202.056 835.912C204.392 835.912 205.896 837.352 205.896 839.528H197.96C198.344 837.16 199.752 835.912 202.056 835.912ZM218.612 849V836.456H221.684V833.192H218.612V828.264H214.708V833.192H211.668V836.456H214.708V849H218.612ZM229.221 849.416C231.685 849.416 233.829 848.296 234.501 846.664L234.789 849H238.213V839.4C238.213 835.016 235.589 832.712 231.333 832.712C227.045 832.712 224.229 834.952 224.229 838.376H227.557C227.557 836.712 228.837 835.752 231.141 835.752C233.125 835.752 234.405 836.616 234.405 838.76V839.112L229.669 839.464C225.925 839.752 223.813 841.576 223.813 844.488C223.813 847.464 225.861 849.416 229.221 849.416ZM230.501 846.472C228.741 846.472 227.781 845.768 227.781 844.328C227.781 843.048 228.709 842.248 231.141 842.024L234.437 841.768V842.6C234.437 845.032 232.901 846.472 230.501 846.472ZM246.453 849V840.488C246.453 837.928 247.925 836.264 250.325 836.264C252.341 836.264 253.653 837.544 253.653 840.2V849H257.557V839.272C257.557 835.176 255.509 832.712 251.541 832.712C249.397 832.712 247.477 833.64 246.485 835.24L246.165 833.192H242.549V849H246.453ZM266.596 849.416C269.06 849.416 271.204 848.296 271.876 846.664L272.164 849H275.588V839.4C275.588 835.016 272.964 832.712 268.708 832.712C264.42 832.712 261.604 834.952 261.604 838.376H264.932C264.932 836.712 266.212 835.752 268.516 835.752C270.5 835.752 271.78 836.616 271.78 838.76V839.112L267.044 839.464C263.3 839.752 261.188 841.576 261.188 844.488C261.188 847.464 263.236 849.416 266.596 849.416ZM267.876 846.472C266.116 846.472 265.156 845.768 265.156 844.328C265.156 843.048 266.084 842.248 268.516 842.024L271.812 841.768V842.6C271.812 845.032 270.276 846.472 267.876 846.472ZM283.86 849V825.192H279.988V849H283.86ZM287.079 856.328C287.943 856.552 288.903 856.68 289.991 856.68C292.583 856.68 294.247 855.464 295.431 852.52L303.175 833.192H299.143L294.855 844.712L290.791 833.192H286.663L293.031 849.672L292.583 850.856C291.911 852.712 290.951 853.064 289.415 853.064H287.079V856.328ZM311.268 849V836.456H314.34V833.192H311.268V828.264H307.364V833.192H304.324V836.456H307.364V849H311.268ZM319.219 830.024C320.499 830.024 321.555 828.968 321.555 827.656C321.555 826.344 320.499 825.32 319.219 825.32C317.875 825.32 316.819 826.344 316.819 827.656C316.819 828.968 317.875 830.024 319.219 830.024ZM317.267 849H321.171V833.192H317.267V849ZM324.777 841.064C324.777 846.088 327.913 849.416 332.713 849.416C336.841 849.416 339.913 846.888 340.393 843.208H336.457C336.041 844.936 334.665 845.896 332.713 845.896C330.217 845.896 328.681 844.04 328.681 841.064C328.681 838.088 330.345 836.2 332.841 836.2C334.697 836.2 336.009 837.128 336.457 838.92H340.361C339.945 835.112 337.001 832.712 332.681 832.712C328.009 832.712 324.777 836.168 324.777 841.064ZM342.583 844.2C342.583 847.304 345.079 849.416 349.015 849.416C352.919 849.416 355.639 847.432 355.639 844.232C355.639 841.8 354.295 840.584 351.639 839.976L348.791 839.304C347.447 838.984 346.743 838.408 346.743 837.512C346.743 836.328 347.639 835.624 349.175 835.624C350.679 835.624 351.575 836.488 351.607 837.832H355.319C355.287 834.76 352.887 832.712 349.335 832.712C345.687 832.712 343.063 834.568 343.063 837.672C343.063 840.2 344.439 841.544 347.287 842.184L350.135 842.856C351.543 843.176 351.959 843.752 351.959 844.552C351.959 845.704 350.967 846.44 349.143 846.44C347.351 846.44 346.327 845.576 346.295 844.2H342.583ZM365.479 841.8C365.479 844.584 367.431 846.28 370.663 846.28C372.967 846.28 375.047 845.16 375.687 843.56C376.135 845.32 377.543 846.28 379.751 846.28C383.431 846.28 385.799 843.048 385.799 838.12C385.799 830.632 380.135 825.192 372.327 825.192C364.487 825.192 358.599 831.048 358.599 838.888C358.599 846.76 364.455 852.616 372.327 852.616C375.175 852.616 377.863 851.784 380.103 850.184L378.983 848.008C376.967 849.416 374.631 850.216 372.327 850.216C365.927 850.216 361.191 845.384 361.191 838.888C361.191 832.424 365.927 827.592 372.327 827.592C378.695 827.592 383.207 831.976 383.207 838.12C383.207 841.576 382.023 843.912 380.263 843.912C379.175 843.912 378.631 843.336 378.631 842.12V837.16C378.631 833.288 376.359 831.08 372.359 831.08C368.423 831.08 365.895 833.128 365.895 836.232H368.903C368.903 834.696 370.087 833.832 372.199 833.832C374.151 833.832 375.175 834.76 375.175 836.584V836.904L370.855 837.256C367.335 837.512 365.479 839.24 365.479 841.8ZM369.095 841.672C369.095 840.424 369.991 839.784 372.167 839.592L375.207 839.336V840.104C375.207 842.28 373.831 843.592 371.591 843.592C369.927 843.592 369.095 842.952 369.095 841.672ZM389.83 856.328H393.734V846.888C394.726 848.488 396.774 849.416 399.142 849.416C403.846 849.416 406.534 845.832 406.534 840.904C406.534 835.944 403.59 832.712 399.142 832.712C396.742 832.712 394.662 833.768 393.702 835.592L393.446 833.192H389.83V856.328ZM393.766 841.096C393.766 838.248 395.526 836.264 398.214 836.264C400.966 836.264 402.598 838.28 402.598 841.096C402.598 843.912 400.966 845.896 398.214 845.896C395.526 845.896 393.766 843.944 393.766 841.096ZM413.758 849L414.014 846.536C414.942 848.36 416.958 849.416 419.326 849.416C423.87 849.416 426.846 846.056 426.846 841.192C426.846 836.2 424.094 832.68 419.582 832.68C417.182 832.68 415.07 833.736 414.046 835.496V825.192H410.142V849H413.758ZM414.078 841.032C414.078 838.184 415.838 836.2 418.526 836.2C421.278 836.2 422.91 838.216 422.91 841.032C422.91 843.848 421.278 845.832 418.526 845.832C415.838 845.832 414.078 843.88 414.078 841.032ZM440.375 833.128C439.735 832.968 439.191 832.904 438.647 832.904C436.535 832.904 435.031 833.96 434.359 835.528L434.135 833.224H430.455V849H434.359V841.32C434.359 838.248 436.119 836.744 438.935 836.744H440.375V833.128ZM445.469 830.024C446.749 830.024 447.805 828.968 447.805 827.656C447.805 826.344 446.749 825.32 445.469 825.32C444.125 825.32 443.069 826.344 443.069 827.656C443.069 828.968 444.125 830.024 445.469 830.024ZM443.517 849H447.421V833.192H443.517V849ZM455.859 849V840.488C455.859 837.928 457.331 836.264 459.731 836.264C461.747 836.264 463.059 837.544 463.059 840.2V849H466.963V839.272C466.963 835.176 464.915 832.712 460.947 832.712C458.803 832.712 456.883 833.64 455.891 835.24L455.571 833.192H451.955V849H455.859ZM469.895 844.2C469.895 847.304 472.391 849.416 476.327 849.416C480.231 849.416 482.951 847.432 482.951 844.232C482.951 841.8 481.607 840.584 478.951 839.976L476.103 839.304C474.759 838.984 474.055 838.408 474.055 837.512C474.055 836.328 474.951 835.624 476.487 835.624C477.991 835.624 478.887 836.488 478.919 837.832H482.631C482.599 834.76 480.199 832.712 476.647 832.712C472.999 832.712 470.375 834.568 470.375 837.672C470.375 840.2 471.751 841.544 474.599 842.184L477.447 842.856C478.855 843.176 479.271 843.752 479.271 844.552C479.271 845.704 478.279 846.44 476.455 846.44C474.663 846.44 473.639 845.576 473.607 844.2H469.895ZM488.376 830.024C489.656 830.024 490.712 828.968 490.712 827.656C490.712 826.344 489.656 825.32 488.376 825.32C487.032 825.32 485.976 826.344 485.976 827.656C485.976 828.968 487.032 830.024 488.376 830.024ZM486.424 849H490.328V833.192H486.424V849ZM493.965 840.744C493.965 845.32 496.909 848.68 501.389 848.68C503.661 848.68 505.613 847.752 506.605 846.28V848.904C506.605 851.528 504.877 853.224 502.189 853.224C499.789 853.224 498.221 852.008 497.965 849.96H494.061C494.541 854.184 497.645 856.776 502.189 856.776C507.309 856.776 510.477 853.48 510.477 848.2V833.192H506.861L506.637 835.368C505.709 833.672 503.853 832.68 501.485 832.68C496.973 832.68 493.965 836.136 493.965 840.744ZM497.901 840.648C497.901 838.056 499.565 836.104 502.157 836.104C504.877 836.104 506.509 837.96 506.509 840.648C506.509 843.4 504.845 845.288 502.157 845.288C499.597 845.288 497.901 843.304 497.901 840.648ZM518.921 849V840.36C518.921 837.992 520.361 836.264 522.825 836.264C524.809 836.264 526.121 837.544 526.121 840.2V849H530.025V839.272C530.025 835.176 527.977 832.712 524.073 832.712C521.801 832.712 519.945 833.704 518.953 835.24V825.192H515.017V849H518.921ZM539.737 849V836.456H542.809V833.192H539.737V828.264H535.833V833.192H532.793V836.456H535.833V849H539.737ZM547.391 849.384C548.799 849.384 549.983 848.232 549.983 846.856C549.983 845.448 548.799 844.296 547.391 844.296C545.983 844.296 544.799 845.448 544.799 846.856C544.799 848.232 545.983 849.384 547.391 849.384ZM552.683 841.064C552.683 846.088 555.819 849.416 560.619 849.416C564.747 849.416 567.819 846.888 568.299 843.208H564.363C563.947 844.936 562.571 845.896 560.619 845.896C558.123 845.896 556.587 844.04 556.587 841.064C556.587 838.088 558.251 836.2 560.747 836.2C562.603 836.2 563.915 837.128 564.363 838.92H568.267C567.851 835.112 564.907 832.712 560.587 832.712C555.915 832.712 552.683 836.168 552.683 841.064ZM570.777 841.064C570.777 845.992 574.329 849.384 579.225 849.384C584.121 849.384 587.673 845.992 587.673 841.064C587.673 836.136 584.121 832.744 579.225 832.744C574.329 832.744 570.777 836.136 570.777 841.064ZM574.681 841.064C574.681 838.184 576.537 836.232 579.225 836.232C581.913 836.232 583.769 838.184 583.769 841.064C583.769 843.944 581.913 845.896 579.225 845.896C576.537 845.896 574.681 843.944 574.681 841.064ZM595.171 849V840.04C595.171 837.48 596.675 836.264 598.531 836.264C600.387 836.264 601.571 837.448 601.571 839.656V849H605.475V840.04C605.475 837.448 606.915 836.232 608.803 836.232C610.659 836.232 611.875 837.416 611.875 839.688V849H615.747V838.664C615.747 835.016 613.635 832.712 609.795 832.712C607.395 832.712 605.539 833.896 604.739 835.72C603.907 833.896 602.243 832.712 599.843 832.712C597.571 832.712 595.971 833.736 595.171 835.048L594.851 833.192H591.267V849H595.171Z" fill="#A4133C"/>
</svg>
