<svg width="48" height="48" viewBox="0 0 48 48" fill="none" xmlns="http://www.w3.org/2000/svg">
<path d="M40 28C42.2091 28 44 26.2091 44 24C44 21.7909 42.2091 20 40 20C37.7909 20 36 21.7909 36 24C36 26.2091 37.7909 28 40 28Z" stroke="#A4133C" stroke-width="2" stroke-linecap="round" stroke-linejoin="round"/>
<path d="M40 12C42.2091 12 44 10.2091 44 8C44 5.79086 42.2091 4 40 4C37.7909 4 36 5.79086 36 8C36 10.2091 37.7909 12 40 12Z" stroke="#A4133C" stroke-width="2" stroke-linecap="round" stroke-linejoin="round"/>
<path d="M40 44C42.2091 44 44 42.2091 44 40C44 37.7909 42.2091 36 40 36C37.7909 36 36 37.7909 36 40C36 42.2091 37.7909 44 40 44Z" stroke="#A4133C" stroke-width="2" stroke-linecap="round" stroke-linejoin="round"/>
<path d="M8 28C10.2091 28 12 26.2091 12 24C12 21.7909 10.2091 20 8 20C5.79086 20 4 21.7909 4 24C4 26.2091 5.79086 28 8 28Z" stroke="#A4133C" stroke-width="2" stroke-linecap="round" stroke-linejoin="round"/>
<path d="M12 24H36" stroke="#FABDBC" stroke-width="2" stroke-linecap="round" stroke-linejoin="round"/>
<path d="M36 8H28C24 8 22 10 22 14V34C22 38 24 40 28 40H36" stroke="#FABDBC" stroke-width="2" stroke-linecap="round" stroke-linejoin="round"/>
</svg>
