<svg width="48" height="48" viewBox="0 0 48 48" fill="none" xmlns="http://www.w3.org/2000/svg">
<path d="M17 38H16C8 38 4 36 4 26V16C4 8 8 4 16 4H32C40 4 44 8 44 16V26C44 34 40 38 32 38H31C30.38 38 29.78 38.3 29.4 38.8L26.4 42.8C25.08 44.56 22.92 44.56 21.6 42.8L18.6 38.8C18.28 38.36 17.54 38 17 38Z" stroke="#FABDBC" stroke-width="2" stroke-miterlimit="10" stroke-linecap="round" stroke-linejoin="round"/>
<path d="M31.9929 22H32.0109" stroke="#A4133C" stroke-width="2" stroke-linecap="round" stroke-linejoin="round"/>
<path d="M23.991 22H24.0089" stroke="#A4133C" stroke-width="2" stroke-linecap="round" stroke-linejoin="round"/>
<path d="M15.989 22H16.007" stroke="#A4133C" stroke-width="2" stroke-linecap="round" stroke-linejoin="round"/>
</svg>
