<svg width="48" height="48" viewBox="0 0 48 48" fill="none" xmlns="http://www.w3.org/2000/svg">
<path d="M33.9199 12.3398C37.9199 15.1198 40.6799 19.5398 41.2399 24.6398" stroke="#FABDBC" stroke-width="2" stroke-linecap="round" stroke-linejoin="round"/>
<path d="M6.97998 24.7404C7.49998 19.6604 10.22 15.2404 14.18 12.4404" stroke="#FABDBC" stroke-width="2" stroke-linecap="round" stroke-linejoin="round"/>
<path d="M16.3799 41.8799C18.6999 43.0599 21.3399 43.7199 24.1199 43.7199C26.7999 43.7199 29.3199 43.1199 31.5799 42.0199" stroke="#FABDBC" stroke-width="2" stroke-linecap="round" stroke-linejoin="round"/>
<path d="M24.1201 15.4003C27.1908 15.4003 29.6801 12.911 29.6801 9.84027C29.6801 6.76957 27.1908 4.28027 24.1201 4.28027C21.0494 4.28027 18.5601 6.76957 18.5601 9.84027C18.5601 12.911 21.0494 15.4003 24.1201 15.4003Z" stroke="#A4133C" stroke-width="2" stroke-linecap="round" stroke-linejoin="round"/>
<path d="M9.6601 39.8397C12.7308 39.8397 15.2201 37.3504 15.2201 34.2797C15.2201 31.209 12.7308 28.7197 9.6601 28.7197C6.58939 28.7197 4.1001 31.209 4.1001 34.2797C4.1001 37.3504 6.58939 39.8397 9.6601 39.8397Z" stroke="#A4133C" stroke-width="2" stroke-linecap="round" stroke-linejoin="round"/>
<path d="M38.34 39.8397C41.4107 39.8397 43.9 37.3504 43.9 34.2797C43.9 31.209 41.4107 28.7197 38.34 28.7197C35.2693 28.7197 32.78 31.209 32.78 34.2797C32.78 37.3504 35.2693 39.8397 38.34 39.8397Z" stroke="#A4133C" stroke-width="2" stroke-linecap="round" stroke-linejoin="round"/>
</svg>
